<?xml version="1.0" encoding="iso-8859-1"?>
<!-- Generator: Adobe Illustrator 19.0.0, SVG Export Plug-In . SVG Version: 6.00 Build 0)  -->
<svg version="1.1" id="Capa_1" xmlns="http://www.w3.org/2000/svg" xmlns:xlink="http://www.w3.org/1999/xlink" x="0px" y="0px"
	 viewBox="0 0 479.999 479.999" style="enable-background:new 0 0 479.999 479.999;" xml:space="preserve">
<linearGradient id="SVGID_1_" gradientUnits="userSpaceOnUse" x1="-26.8751" y1="532.3905" x2="-26.8751" y2="583.2585" gradientTransform="matrix(8 0 0 -8 454.9999 4688.9595)">
	<stop  offset="0" style="stop-color:#006DF0"/>
	<stop  offset="1" style="stop-color:#00E7F0"/>
</linearGradient>
<path style="fill:url(#SVGID_1_);" d="M478.264,95.012c-1.519-1.907-3.825-3.018-6.264-3.016H76.08L72.752,63.38
	c-2.343-20.168-19.424-35.382-39.728-35.384H8c-4.418,0-8,3.582-8,8s3.582,8,8,8h25.024c12.184,0,22.435,9.129,23.84,21.232
	L92.8,376.579c2.183,18.697,17.152,33.316,35.896,35.056c4.251,26.135,28.885,43.876,55.02,39.624
	c20.223-3.29,36.121-19.067,39.564-39.264h81.44c4.418,26.139,29.19,43.747,55.329,39.329s43.747-29.19,39.329-55.329
	s-29.19-43.747-55.329-39.329c-20.143,3.405-35.924,19.186-39.329,39.329h-81.44c-4.423-26.107-29.172-43.685-55.278-39.263
	c-19.976,3.384-35.669,18.96-39.202,38.911c-10.639-1.642-18.87-10.187-20.112-20.88l-6.76-58.768h245.704
	c48.49,0.176,90.605-33.328,101.336-80.616l30.832-133.6C480.337,99.407,479.772,96.919,478.264,95.012L478.264,95.012z
	 M352,371.996c17.673,0,32,14.327,32,32s-14.327,32-32,32s-32-14.327-32-32S334.327,371.996,352,371.996z M176,371.996
	c17.673,0,32,14.327,32,32s-14.327,32-32,32s-32-14.327-32-32S158.327,371.996,176,371.996z M433.376,231.788
	c-9.079,40.012-44.715,68.36-85.744,68.208H100.088l-22.152-192h384L433.376,231.788z"/>
<linearGradient id="SVGID_2_" gradientUnits="userSpaceOnUse" x1="-23.875" y1="532.3905" x2="-23.875" y2="583.2585" gradientTransform="matrix(8 0 0 -8 454.9999 4688.9595)">
	<stop  offset="0" style="stop-color:#006DF0"/>
	<stop  offset="1" style="stop-color:#00E7F0"/>
</linearGradient>
<path style="fill:url(#SVGID_2_);" d="M192,211.996h64v64c0,4.418,3.582,8,8,8s8-3.582,8-8v-64h64c4.418,0,8-3.582,8-8s-3.582-8-8-8
	h-64v-64c0-4.418-3.582-8-8-8s-8,3.582-8,8v64h-64c-4.418,0-8,3.582-8,8S187.582,211.996,192,211.996z"/>
<g>
</g>
<g>
</g>
<g>
</g>
<g>
</g>
<g>
</g>
<g>
</g>
<g>
</g>
<g>
</g>
<g>
</g>
<g>
</g>
<g>
</g>
<g>
</g>
<g>
</g>
<g>
</g>
<g>
</g>
</svg>
