<?xml version="1.0" encoding="iso-8859-1"?>
<!-- Generator: Adobe Illustrator 19.0.0, SVG Export Plug-In . SVG Version: 6.00 Build 0)  -->
<svg version="1.1" id="Capa_1" xmlns="http://www.w3.org/2000/svg" xmlns:xlink="http://www.w3.org/1999/xlink" x="0px" y="0px"
	 viewBox="0 0 480.117 480.117" style="enable-background:new 0 0 480.117 480.117;" xml:space="preserve">
<linearGradient id="SVGID_1_" gradientUnits="userSpaceOnUse" x1="-28.8199" y1="557.5537" x2="-28.8199" y2="618.2377" gradientTransform="matrix(8 0 0 -8 454.5889 4941.5283)">
	<stop  offset="0" style="stop-color:#006DF0"/>
	<stop  offset="1" style="stop-color:#00E7F0"/>
</linearGradient>
<path style="fill:url(#SVGID_1_);" d="M16.059,240.059C16.035,116.347,116.304,16.039,240.016,16.016
	c73.324-0.014,142.014,35.859,183.899,96.043h-87.856v16h112v-104h-16v72.128C352.562-9.876,202.136-31.412,96.073,48.085
	C13.774,109.771-20.072,217.039,11.923,314.787c1.074,3.293,4.144,5.521,7.608,5.52c0.846,0.001,1.687-0.137,2.488-0.408
	c4.196-1.375,6.484-5.891,5.112-10.088C19.773,287.292,16.036,263.749,16.059,240.059L16.059,240.059z"/>
<g>
	
		<linearGradient id="SVGID_2_" gradientUnits="userSpaceOnUse" x1="-24.8126" y1="557.5537" x2="-24.8126" y2="618.2377" gradientTransform="matrix(8 0 0 -8 454.5889 4941.5283)">
		<stop  offset="0" style="stop-color:#006DF0"/>
		<stop  offset="1" style="stop-color:#00E7F0"/>
	</linearGradient>
	<path style="fill:url(#SVGID_2_);" d="M468.195,165.331c-1.491-4.159-6.072-6.322-10.231-4.831
		c-3.996,1.433-6.177,5.737-4.969,9.807c38.514,117.592-25.591,244.141-143.183,282.655c-94.01,30.79-197.086-3.717-253.609-84.903
		h87.856v-16h-112v104h16v-72.128c79.497,106.063,229.923,127.599,335.985,48.102C466.344,370.347,500.189,263.079,468.195,165.331z
		"/>
	
		<linearGradient id="SVGID_3_" gradientUnits="userSpaceOnUse" x1="-26.8163" y1="557.5537" x2="-26.8163" y2="618.2377" gradientTransform="matrix(8 0 0 -8 454.5889 4941.5283)">
		<stop  offset="0" style="stop-color:#006DF0"/>
		<stop  offset="1" style="stop-color:#00E7F0"/>
	</linearGradient>
	<path style="fill:url(#SVGID_3_);" d="M240.059,120.059c30.913,0.035,55.965,25.087,56,56h16
		c-0.053-36.643-27.588-67.417-64-71.528V80.059h-16v24.472c-39.504,4.544-67.845,40.252-63.301,79.756
		c4.17,36.255,34.807,63.657,71.301,63.772c30.928,0,56,25.072,56,56s-25.072,56-56,56s-56-25.072-56-56h-16
		c0.053,36.643,27.588,67.417,64,71.528v24.472h16v-24.472c39.504-4.544,67.845-40.252,63.301-79.756
		c-4.17-36.255-34.807-63.657-71.301-63.772c-30.928,0-56-25.072-56-56S209.131,120.059,240.059,120.059L240.059,120.059z"/>
</g>
<g>
</g>
<g>
</g>
<g>
</g>
<g>
</g>
<g>
</g>
<g>
</g>
<g>
</g>
<g>
</g>
<g>
</g>
<g>
</g>
<g>
</g>
<g>
</g>
<g>
</g>
<g>
</g>
<g>
</g>
</svg>
